<svg width="25" height="24" viewBox="0 0 25 24" fill="none" xmlns="http://www.w3.org/2000/svg">
    <path fill-rule="evenodd" clip-rule="evenodd" d="M17.9301 4.41C17.9301 3.08 19.0101 2 20.3401 2C21.6701 2 22.7501 3.08 22.7501 4.41C22.7501 5.74 21.6701 6.82 20.3401 6.82C19.0101 6.82 17.9301 5.74 17.9301 4.41ZM14.08 14.7593L16.97 11.0303L16.93 11.0503C17.09 10.8303 17.12 10.5503 17.01 10.3003C16.901 10.0503 16.66 9.8803 16.401 9.8603C16.13 9.8303 15.861 9.9503 15.7 10.1703L13.281 13.3003L10.51 11.1203C10.34 10.9903 10.14 10.9393 9.94 10.9603C9.741 10.9903 9.561 11.0993 9.44 11.2593L6.481 15.1103L6.42 15.2003C6.25 15.5193 6.33 15.9293 6.63 16.1503C6.77 16.2403 6.92 16.3003 7.09 16.3003C7.321 16.3103 7.54 16.1893 7.68 16.0003L10.19 12.7693L13.04 14.9103L13.13 14.9693C13.45 15.1393 13.85 15.0603 14.08 14.7593ZM16.2 3.7803C16.16 4.0303 16.14 4.2803 16.14 4.5303C16.14 6.7803 17.96 8.5993 20.2 8.5993C20.45 8.5993 20.69 8.5703 20.94 8.5303V16.5993C20.94 19.9903 18.94 22.0003 15.54 22.0003H8.151C4.75 22.0003 2.75 19.9903 2.75 16.5993V9.2003C2.75 5.8003 4.75 3.7803 8.151 3.7803H16.2Z" fill="#405FF2"/>
</svg>
