<svg width="25" height="24" viewBox="0 0 25 24" fill="none" xmlns="http://www.w3.org/2000/svg">
    <path fill-rule="evenodd" clip-rule="evenodd" d="M7.92 2H16.59C19.98 2 22.25 4.38 22.25 7.92V16.091C22.25 19.62 19.98 22 16.59 22H7.92C4.53 22 2.25 19.62 2.25 16.091V7.92C2.25 4.38 4.53 2 7.92 2ZM11.68 14.99L16.43 10.24C16.77 9.9 16.77 9.35 16.43 9C16.09 8.66 15.53 8.66 15.19 9L11.06 13.13L9.31 11.38C8.97 11.04 8.41 11.04 8.07 11.38C7.73 11.72 7.73 12.27 8.07 12.62L10.45 14.99C10.62 15.16 10.84 15.24 11.06 15.24C11.29 15.24 11.51 15.16 11.68 14.99Z" fill="#405FF2"/>
</svg>
