<svg width="41" height="40" viewBox="0 0 41 40" fill="none" xmlns="http://www.w3.org/2000/svg">
    <path fill-rule="evenodd" clip-rule="evenodd" d="M20.5615 12.8545C21.2519 12.8545 21.8115 13.4141 21.8115 14.1045V26.0185C21.8115 26.7089 21.2519 27.2685 20.5615 27.2685C19.8712 27.2685 19.3115 26.7089 19.3115 26.0185V14.1045C19.3115 13.4141 19.8712 12.8545 20.5615 12.8545Z" fill="#405FF2"/>
    <path fill-rule="evenodd" clip-rule="evenodd" d="M13.3477 20.0615C13.3477 19.3712 13.9073 18.8115 14.5977 18.8115H26.524C27.2143 18.8115 27.774 19.3712 27.774 20.0615C27.774 20.7519 27.2143 21.3115 26.524 21.3115H14.5977C13.9073 21.3115 13.3477 20.7519 13.3477 20.0615Z" fill="#405FF2"/>
    <path fill-rule="evenodd" clip-rule="evenodd" d="M8.76711 8.26711C6.60204 10.4322 5.58301 14.0453 5.58301 20.0611C5.58301 26.0768 6.60204 29.69 8.76711 31.855C10.9322 34.0201 14.5453 35.0392 20.5611 35.0392C26.5768 35.0392 30.19 34.0201 32.355 31.855C34.5201 29.69 35.5392 26.0768 35.5392 20.0611C35.5392 14.0453 34.5201 10.4322 32.355 8.26711C30.19 6.10204 26.5768 5.08301 20.5611 5.08301C14.5453 5.08301 10.9322 6.10204 8.76711 8.26711ZM6.99934 6.49934C9.90576 3.59293 14.4067 2.58301 20.5611 2.58301C26.7155 2.58301 31.2164 3.59293 34.1228 6.49934C37.0292 9.40576 38.0392 13.9067 38.0392 20.0611C38.0392 26.2155 37.0292 30.7164 34.1228 33.6228C31.2164 36.5292 26.7155 37.5392 20.5611 37.5392C14.4067 37.5392 9.90576 36.5292 6.99934 33.6228C4.09293 30.7164 3.08301 26.2155 3.08301 20.0611C3.08301 13.9067 4.09293 9.40576 6.99934 6.49934Z" fill="#405FF2"/>
</svg>
