<svg width="48" height="48" viewBox="0 0 48 48" fill="none" xmlns="http://www.w3.org/2000/svg">
    <path d="M0.5 24C0.5 11.0213 11.0213 0.5 24 0.5C36.9787 0.5 47.5 11.0213 47.5 24C47.5 36.9787 36.9787 47.5 24 47.5C11.0213 47.5 0.5 36.9787 0.5 24Z" stroke="#EEEEEE"/>
    <path fill-rule="evenodd" clip-rule="evenodd" d="M24.2312 36.2497H24.2289C22.921 36.2485 21.6832 35.6722 20.744 34.6257C20.4209 34.2675 20.45 33.7134 20.8094 33.3914C21.1687 33.067 21.7217 33.0962 22.0449 33.4567C22.6492 34.1299 23.425 34.4997 24.23 34.4997H24.2312C25.0397 34.4997 25.819 34.1299 26.4245 33.4555C26.7489 33.0974 27.3019 33.0682 27.66 33.3914C28.0194 33.7145 28.0485 34.2687 27.7254 34.6269C26.7827 35.6734 25.5425 36.2497 24.2312 36.2497Z" fill="#212121"/>
    <mask id="mask0_208_6709" style="mask-type:luminance" maskUnits="userSpaceOnUse" x="13" y="11" width="23" height="21">
        <path fill-rule="evenodd" clip-rule="evenodd" d="M13.5 11.1665H35.0797V31.4058H13.5V11.1665Z" fill="white"/>
    </mask>
    <g mask="url(#mask0_208_6709)">
        <path fill-rule="evenodd" clip-rule="evenodd" d="M24.2882 12.9165C20.2107 12.9165 17.3687 16.1108 17.3687 18.9773C17.3687 21.4028 16.6955 22.524 16.1005 23.5133C15.6233 24.3078 15.2465 24.9355 15.2465 26.2993C15.4413 28.4997 16.8938 29.6558 24.2882 29.6558C31.6417 29.6558 33.1397 28.4483 33.3333 26.2235C33.3298 24.9355 32.953 24.3078 32.4758 23.5133C31.8808 22.524 31.2077 21.4028 31.2077 18.9773C31.2077 16.1108 28.3657 12.9165 24.2882 12.9165ZM24.2882 31.4058C18.8328 31.4058 13.9025 31.0208 13.5 26.374C13.4965 24.4513 14.0833 23.4737 14.6013 22.6127C15.1252 21.74 15.6187 20.9175 15.6187 18.9773C15.6187 15.2055 19.1023 11.1665 24.2882 11.1665C29.474 11.1665 32.9577 15.2055 32.9577 18.9773C32.9577 20.9175 33.4512 21.74 33.975 22.6127C34.493 23.4737 35.0798 24.4513 35.0798 26.2993C34.6727 31.0208 29.7435 31.4058 24.2882 31.4058Z" fill="#212121"/>
    </g>
    <circle cx="32" cy="16" r="4" fill="#F75555"/>
</svg>
