<svg width="41" height="40" viewBox="0 0 41 40" fill="none" xmlns="http://www.w3.org/2000/svg">
    <path d="M36.75 30.0002H31.75V26.2502H35.5C35.6899 26.2502 35.8774 26.2069 36.0481 26.1236C36.2188 26.0403 36.3682 25.9191 36.4851 25.7694C36.602 25.6197 36.6832 25.4453 36.7226 25.2595C36.762 25.0737 36.7586 24.8814 36.7125 24.6971L31.7125 4.6971C31.6448 4.42681 31.4887 4.18691 31.269 4.01549C31.0493 3.84408 30.7786 3.75098 30.5 3.75098C30.2214 3.75098 29.9507 3.84408 29.731 4.01549C29.5113 4.18691 29.3552 4.42681 29.2875 4.6971L24.2875 24.6971C24.2414 24.8814 24.238 25.0737 24.2774 25.2595C24.3168 25.4453 24.398 25.6197 24.5149 25.7694C24.6318 25.9191 24.7812 26.0403 24.9519 26.1236C25.1226 26.2069 25.3101 26.2502 25.5 26.2502H29.25V30.0002H19.25V27.5002H20.5C20.8315 27.5002 21.1495 27.3685 21.3839 27.1341C21.6183 26.8997 21.75 26.5817 21.75 26.2502C21.75 25.9187 21.6183 25.6008 21.3839 25.3663C21.1495 25.1319 20.8315 25.0002 20.5 25.0002H19.25V22.5002H20.5C20.8315 22.5002 21.1495 22.3685 21.3839 22.1341C21.6183 21.8997 21.75 21.5817 21.75 21.2502C21.75 20.9187 21.6183 20.6008 21.3839 20.3663C21.1495 20.1319 20.8315 20.0002 20.5 20.0002H6.75C6.41848 20.0002 6.10054 20.1319 5.86612 20.3663C5.6317 20.6008 5.5 20.9187 5.5 21.2502C5.5 21.5817 5.6317 21.8997 5.86612 22.1341C6.10054 22.3685 6.41848 22.5002 6.75 22.5002H8V25.0002H6.75C6.41848 25.0002 6.10054 25.1319 5.86612 25.3663C5.6317 25.6008 5.5 25.9187 5.5 26.2502C5.5 26.5817 5.6317 26.8997 5.86612 27.1341C6.10054 27.3685 6.41848 27.5002 6.75 27.5002H8V30.0002H4.25C3.91848 30.0002 3.60054 30.1319 3.36612 30.3663C3.1317 30.6008 3 30.9187 3 31.2502C3 31.5817 3.1317 31.8997 3.36612 32.1341C3.60054 32.3685 3.91848 32.5002 4.25 32.5002H36.75C37.0815 32.5002 37.3995 32.3685 37.6339 32.1341C37.8683 31.8997 38 31.5817 38 31.2502C38 30.9187 37.8683 30.6008 37.6339 30.3663C37.3995 30.1319 37.0815 30.0002 36.75 30.0002ZM30.5 10.1565L33.8984 23.7502H27.1016L30.5 10.1565ZM10.5 22.5002H16.75V25.0002H10.5V22.5002ZM10.5 27.5002H16.75V30.0002H10.5V27.5002ZM18.625 15.0002C19.4903 15.0002 20.3362 14.7436 21.0556 14.2629C21.7751 13.7822 22.3358 13.0989 22.667 12.2995C22.9981 11.5 23.0847 10.6204 22.9159 9.7717C22.7471 8.92303 22.3304 8.14348 21.7186 7.53163C21.1067 6.91977 20.3272 6.5031 19.4785 6.33429C18.6299 6.16547 17.7502 6.25211 16.9508 6.58325C16.1513 6.91438 15.4681 7.47514 14.9873 8.1946C14.5066 8.91407 14.25 9.75993 14.25 10.6252C14.25 11.7855 14.7109 12.8983 15.5314 13.7188C16.3519 14.5393 17.4647 15.0002 18.625 15.0002ZM18.625 8.75022C18.9958 8.75022 19.3584 8.86019 19.6667 9.06621C19.975 9.27224 20.2154 9.56508 20.3573 9.90769C20.4992 10.2503 20.5363 10.6273 20.464 10.991C20.3916 11.3547 20.213 11.6888 19.9508 11.951C19.6886 12.2133 19.3545 12.3918 18.9908 12.4642C18.6271 12.5365 18.2501 12.4994 17.9075 12.3575C17.5649 12.2156 17.272 11.9753 17.066 11.6669C16.86 11.3586 16.75 10.9961 16.75 10.6252C16.75 10.1279 16.9475 9.65103 17.2992 9.2994C17.6508 8.94776 18.1277 8.75022 18.625 8.75022Z" fill="#405FF2"/>
</svg>
