<svg width="41" height="40" viewBox="0 0 41 40" fill="none" xmlns="http://www.w3.org/2000/svg">
    <path d="M33 11.25H4.25V7.5C4.25 7.16848 4.1183 6.85054 3.88388 6.61612C3.64946 6.3817 3.33152 6.25 3 6.25C2.66848 6.25 2.35054 6.3817 2.11612 6.61612C1.8817 6.85054 1.75 7.16848 1.75 7.5V32.5C1.75 32.8315 1.8817 33.1495 2.11612 33.3839C2.35054 33.6183 2.66848 33.75 3 33.75C3.33152 33.75 3.64946 33.6183 3.88388 33.3839C4.1183 33.1495 4.25 32.8315 4.25 32.5V27.5H36.75V32.5C36.75 32.8315 36.8817 33.1495 37.1161 33.3839C37.3505 33.6183 37.6685 33.75 38 33.75C38.3315 33.75 38.6495 33.6183 38.8839 33.3839C39.1183 33.1495 39.25 32.8315 39.25 32.5V17.5C39.25 15.8424 38.5915 14.2527 37.4194 13.0806C36.2473 11.9085 34.6576 11.25 33 11.25ZM4.25 13.75H15.5V25H4.25V13.75ZM18 25V13.75H33C33.9946 13.75 34.9484 14.1451 35.6516 14.8483C36.3549 15.5516 36.75 16.5054 36.75 17.5V25H18Z" fill="#405FF2"/>
</svg>
