<svg width="41" height="40" viewBox="0 0 41 40" fill="none" xmlns="http://www.w3.org/2000/svg">
    <path d="M36.75 15.0001H33C33 14.6685 32.8683 14.3506 32.6339 14.1162C32.3995 13.8818 32.0815 13.7501 31.75 13.7501H21.75C21.4185 13.7501 21.1005 13.8818 20.8661 14.1162C20.6317 14.3506 20.5 14.6685 20.5 15.0001H10.5V8.12506C10.5 7.62778 10.6975 7.15086 11.0492 6.79923C11.4008 6.4476 11.8777 6.25006 12.375 6.25006C12.8145 6.24826 13.2415 6.39543 13.5866 6.66756C13.9317 6.9397 14.1743 7.32073 14.275 7.74849C14.3437 8.07063 14.5367 8.35265 14.8121 8.53324C15.0876 8.71384 15.4232 8.77843 15.746 8.71296C16.0688 8.6475 16.3527 8.45727 16.536 8.18363C16.7193 7.90999 16.7873 7.57505 16.725 7.25162C16.5128 6.25695 15.9644 5.36575 15.1721 4.72801C14.3798 4.09026 13.392 3.7449 12.375 3.75006C11.2147 3.75006 10.1019 4.21099 9.28141 5.03146C8.46094 5.85194 8 6.96473 8 8.12506V15.0001H4.25C3.58696 15.0001 2.95107 15.2634 2.48223 15.7323C2.01339 16.2011 1.75 16.837 1.75 17.5001V22.5001C1.75248 24.8199 2.67515 27.0441 4.31556 28.6845C5.95596 30.3249 8.18012 31.2476 10.5 31.2501V33.7501C10.5 34.0816 10.6317 34.3995 10.8661 34.6339C11.1005 34.8684 11.4185 35.0001 11.75 35.0001C12.0815 35.0001 12.3995 34.8684 12.6339 34.6339C12.8683 34.3995 13 34.0816 13 33.7501V31.2501H28V33.7501C28 34.0816 28.1317 34.3995 28.3661 34.6339C28.6005 34.8684 28.9185 35.0001 29.25 35.0001C29.5815 35.0001 29.8995 34.8684 30.1339 34.6339C30.3683 34.3995 30.5 34.0816 30.5 33.7501V31.2501C32.8199 31.2476 35.044 30.3249 36.6844 28.6845C38.3249 27.0441 39.2475 24.8199 39.25 22.5001V17.5001C39.25 16.837 38.9866 16.2011 38.5178 15.7323C38.0489 15.2634 37.413 15.0001 36.75 15.0001ZM30.5 16.2501V21.2501H23V16.2501H30.5ZM36.75 22.5001C36.75 23.3208 36.5883 24.1335 36.2742 24.8918C35.9602 25.6501 35.4998 26.3391 34.9194 26.9195C34.3391 27.4998 33.6501 27.9602 32.8918 28.2743C32.1335 28.5884 31.3208 28.7501 30.5 28.7501H10.5C8.8424 28.7501 7.25269 28.0916 6.08058 26.9195C4.90848 25.7474 4.25 24.1577 4.25 22.5001V17.5001H20.5V22.5001C20.5 22.8316 20.6317 23.1495 20.8661 23.3839C21.1005 23.6184 21.4185 23.7501 21.75 23.7501H31.75C32.0815 23.7501 32.3995 23.6184 32.6339 23.3839C32.8683 23.1495 33 22.8316 33 22.5001V17.5001H36.75V22.5001Z" fill="#405FF2"/>
</svg>
