<svg width="21" height="20" viewBox="0 0 21 20" fill="none" xmlns="http://www.w3.org/2000/svg">
    <path d="M0.5 10C0.5 4.47715 4.97715 0 10.5 0C16.0228 0 20.5 4.47715 20.5 10C20.5 15.5228 16.0228 20 10.5 20C4.97715 20 0.5 15.5228 0.5 10Z" fill="#405FF2"/>
    <path d="M13.35 11.95L10.7498 10L13.35 8.05C13.3966 8.01507 13.4344 7.96978 13.4604 7.91771C13.4864 7.86563 13.5 7.80822 13.5 7.75C13.5 7.69178 13.4864 7.63437 13.4604 7.5823C13.4344 7.53022 13.3966 7.48493 13.35 7.45L10.35 5.2C10.2943 5.15821 10.228 5.13277 10.1587 5.12652C10.0893 5.12026 10.0196 5.13345 9.9573 5.16459C9.89501 5.19573 9.84262 5.24361 9.80601 5.30285C9.7694 5.36209 9.75 5.43036 9.75 5.5V9.25L7.35 7.45C7.27044 7.39033 7.17043 7.3647 7.07197 7.37877C6.97351 7.39283 6.88468 7.44544 6.825 7.525C6.76533 7.60456 6.73971 7.70458 6.75377 7.80303C6.76784 7.90149 6.82044 7.99033 6.9 8.05L9.50016 10L6.9 11.95C6.86061 11.9795 6.82741 12.0166 6.80232 12.0589C6.77723 12.1013 6.76073 12.1482 6.75377 12.197C6.73971 12.2954 6.76533 12.3954 6.825 12.475C6.88468 12.5546 6.97351 12.6072 7.07197 12.6212C7.17043 12.6353 7.27044 12.6097 7.35 12.55L9.75 10.75V14.5C9.75 14.5696 9.7694 14.6379 9.80601 14.6971C9.84262 14.7564 9.89501 14.8043 9.9573 14.8354C10.0196 14.8666 10.0893 14.8797 10.1587 14.8735C10.228 14.8672 10.2943 14.8418 10.35 14.8L13.35 12.55C13.3966 12.5151 13.4344 12.4698 13.4604 12.4177C13.4864 12.3656 13.5 12.3082 13.5 12.25C13.5 12.1918 13.4864 12.1344 13.4604 12.0823C13.4344 12.0302 13.3966 11.9849 13.35 11.95ZM10.5 6.25L12.5002 7.75L10.5 9.25V6.25ZM10.5 13.75V10.75L12.5002 12.25L10.5 13.75Z" fill="white"/>
</svg>
