<svg width="28" height="28" viewBox="0 0 28 28" fill="none" xmlns="http://www.w3.org/2000/svg">
    <path d="M22.4946 21.2554C22.5758 21.3367 22.6403 21.4333 22.6843 21.5395C22.7283 21.6457 22.751 21.7595 22.751 21.8745C22.751 21.9895 22.7283 22.1033 22.6843 22.2095C22.6403 22.3158 22.5758 22.4123 22.4946 22.4936C22.4133 22.5749 22.3167 22.6394 22.2105 22.6834C22.1043 22.7274 21.9905 22.75 21.8755 22.75C21.7605 22.75 21.6467 22.7274 21.5405 22.6834C21.4342 22.6394 21.3377 22.5749 21.2564 22.4936L14.0005 15.2365L6.74455 22.4936C6.58036 22.6578 6.35768 22.75 6.12549 22.75C5.89329 22.75 5.67061 22.6578 5.50642 22.4936C5.34224 22.3294 5.25 22.1067 5.25 21.8745C5.25 21.6423 5.34224 21.4196 5.50642 21.2554L12.7635 13.9995L5.50642 6.74357C5.34224 6.57939 5.25 6.3567 5.25 6.12451C5.25 5.89232 5.34224 5.66963 5.50642 5.50545C5.67061 5.34126 5.89329 5.24902 6.12549 5.24902C6.35768 5.24902 6.58036 5.34126 6.74455 5.50545L14.0005 12.7625L21.2564 5.50545C21.4206 5.34126 21.6433 5.24902 21.8755 5.24902C22.1077 5.24902 22.3304 5.34126 22.4946 5.50545C22.6587 5.66963 22.751 5.89232 22.751 6.12451C22.751 6.3567 22.6587 6.57939 22.4946 6.74357L15.2375 13.9995L22.4946 21.2554Z" fill="#212121"/>
</svg>
