<svg width="41" height="40" viewBox="0 0 41 40" fill="none" xmlns="http://www.w3.org/2000/svg">
    <path d="M11.75 13.7498V6.24977C11.75 5.91825 11.8817 5.60031 12.1161 5.36589C12.3505 5.13147 12.6685 4.99977 13 4.99977C13.3315 4.99977 13.6495 5.13147 13.8839 5.36589C14.1183 5.60031 14.25 5.91825 14.25 6.24977V13.7498C14.25 14.0813 14.1183 14.3992 13.8839 14.6337C13.6495 14.8681 13.3315 14.9998 13 14.9998C12.6685 14.9998 12.3505 14.8681 12.1161 14.6337C11.8817 14.3992 11.75 14.0813 11.75 13.7498ZM34.25 6.24977V34.9998C34.25 35.3313 34.1183 35.6492 33.8839 35.8837C33.6495 36.1181 33.3315 36.2498 33 36.2498C32.6685 36.2498 32.3505 36.1181 32.1161 35.8837C31.8817 35.6492 31.75 35.3313 31.75 34.9998V27.4998H24.25C23.9185 27.4998 23.6005 27.3681 23.3661 27.1337C23.1317 26.8992 23 26.5813 23 26.2498C23.0581 23.2555 23.4363 20.2761 24.1281 17.3623C25.6563 11.0357 28.5531 6.79509 32.5078 5.10134C32.6979 5.01991 32.9052 4.98692 33.1112 5.00531C33.3171 5.0237 33.5153 5.0929 33.688 5.20671C33.8606 5.32052 34.0023 5.47538 34.1004 5.65742C34.1985 5.83946 34.2499 6.04299 34.25 6.24977ZM31.75 8.42165C26.7234 12.2607 25.7391 21.6123 25.5469 24.9998H31.75V8.42165ZM19.2328 6.04509C19.2083 5.88095 19.1514 5.72334 19.0654 5.58143C18.9794 5.43953 18.8659 5.31617 18.7317 5.21857C18.5975 5.12096 18.4452 5.05106 18.2837 5.01293C18.1222 4.9748 17.9547 4.96922 17.791 4.9965C17.6273 5.02378 17.4707 5.08338 17.3303 5.17183C17.1899 5.26028 17.0685 5.3758 16.9732 5.51166C16.8779 5.64752 16.8106 5.80099 16.7752 5.96313C16.7398 6.12527 16.7371 6.29282 16.7672 6.45602L18 13.8482C18 15.1743 17.4732 16.4461 16.5355 17.3837C15.5979 18.3214 14.3261 18.8482 13 18.8482C11.6739 18.8482 10.4022 18.3214 9.46448 17.3837C8.5268 16.4461 8.00001 15.1743 8.00001 13.8482L9.23126 6.45602C9.26134 6.29282 9.25861 6.12527 9.22325 5.96313C9.18789 5.80099 9.12059 5.64752 9.0253 5.51166C8.93 5.3758 8.8086 5.26028 8.66818 5.17183C8.52777 5.08338 8.37115 5.02378 8.20746 4.9965C8.04377 4.96922 7.87628 4.9748 7.71477 5.01293C7.55326 5.05106 7.40096 5.12096 7.26675 5.21857C7.13254 5.31617 7.01911 5.43953 6.93307 5.58143C6.84704 5.72334 6.79012 5.88095 6.76564 6.04509L5.51564 13.5451C5.50494 13.6128 5.49972 13.6812 5.50001 13.7498C5.50251 15.5214 6.13113 17.235 7.27481 18.588C8.41848 19.941 10.0036 20.8461 11.75 21.1435V34.9998C11.75 35.3313 11.8817 35.6492 12.1161 35.8837C12.3505 36.1181 12.6685 36.2498 13 36.2498C13.3315 36.2498 13.6495 36.1181 13.8839 35.8837C14.1183 35.6492 14.25 35.3313 14.25 34.9998V21.1435C15.9964 20.8461 17.5815 19.941 18.7252 18.588C19.8689 17.235 20.4975 15.5214 20.5 13.7498C20.4998 13.6812 20.494 13.6127 20.4828 13.5451L19.2328 6.04509Z" fill="#405FF2"/>
</svg>
