<svg width="44" height="44" viewBox="0 0 44 44" fill="none" xmlns="http://www.w3.org/2000/svg">
    <path fill-rule="evenodd" clip-rule="evenodd" d="M6.41699 18.9162C6.41699 10.4831 13.4641 3.66699 21.9883 3.66699C30.5365 3.66699 37.5837 10.4831 37.5837 18.9162C37.5837 23.1658 36.0382 27.111 33.4944 30.4549C30.6881 34.1434 27.2293 37.3572 23.336 39.8798C22.4449 40.4628 21.6408 40.5068 20.6628 39.8798C16.7473 37.3572 13.2885 34.1434 10.5062 30.4549C7.96063 27.111 6.41699 23.1658 6.41699 18.9162ZM16.8564 19.391C16.8564 22.2161 19.1617 24.4381 21.9883 24.4381C24.8168 24.4381 27.1442 22.2161 27.1442 19.391C27.1442 16.5879 24.8168 14.2579 21.9883 14.2579C19.1617 14.2579 16.8564 16.5879 16.8564 19.391Z" fill="white"/>
</svg>
