<svg width="26" height="18" viewBox="0 0 26 18" fill="none" xmlns="http://www.w3.org/2000/svg">
    <path d="M5.052 8.62C4.284 8.62 3.592 8.432 2.976 8.056C2.36 7.672 1.868 7.172 1.5 6.556C1.14 5.932 0.96 5.26 0.96 4.54C0.96 3.796 1.14 3.116 1.5 2.5C1.868 1.884 2.36 1.392 2.976 1.024C3.6 0.647999 4.292 0.459999 5.052 0.459999C5.828 0.459999 6.524 0.651999 7.14 1.036C7.756 1.412 8.24 1.908 8.592 2.524C8.952 3.14 9.132 3.812 9.132 4.54C9.132 5.308 8.944 6.004 8.568 6.628C8.2 7.244 7.704 7.732 7.08 8.092C6.464 8.444 5.788 8.62 5.052 8.62ZM5.052 6.124C5.492 6.124 5.864 5.972 6.168 5.668C6.48 5.356 6.636 4.98 6.636 4.54C6.636 4.092 6.48 3.716 6.168 3.412C5.864 3.108 5.492 2.956 5.052 2.956C4.612 2.956 4.236 3.108 3.924 3.412C3.612 3.716 3.456 4.092 3.456 4.54C3.456 4.98 3.612 5.356 3.924 5.668C4.236 5.972 4.612 6.124 5.052 6.124ZM19.3176 17.812C18.1816 17.812 17.1136 17.588 16.1136 17.14C15.1136 16.684 14.2336 16.06 13.4736 15.268C12.7216 14.468 12.1296 13.54 11.6976 12.484C11.2736 11.428 11.0616 10.3 11.0616 9.1C11.0616 7.9 11.2736 6.772 11.6976 5.716C12.1296 4.66 12.7216 3.736 13.4736 2.944C14.2336 2.144 15.1136 1.52 16.1136 1.072C17.1136 0.615999 18.1816 0.387999 19.3176 0.387999C20.6776 0.387999 21.9296 0.703999 23.0736 1.336C24.2176 1.968 25.1656 2.808 25.9176 3.856L23.6976 5.044C23.1776 4.388 22.5336 3.864 21.7656 3.472C20.9976 3.08 20.1816 2.884 19.3176 2.884C18.5176 2.884 17.7696 3.048 17.0736 3.376C16.3776 3.704 15.7656 4.152 15.2376 4.72C14.7096 5.288 14.2976 5.948 14.0016 6.7C13.7056 7.452 13.5576 8.252 13.5576 9.1C13.5576 9.956 13.7056 10.76 14.0016 11.512C14.2976 12.256 14.7096 12.916 15.2376 13.492C15.7736 14.06 16.3896 14.508 17.0856 14.836C17.7816 15.156 18.5256 15.316 19.3176 15.316C20.1976 15.316 21.0176 15.12 21.7776 14.728C22.5456 14.328 23.1856 13.8 23.6976 13.144L25.9176 14.356C25.1656 15.404 24.2176 16.244 23.0736 16.876C21.9296 17.5 20.6776 17.812 19.3176 17.812Z" fill="white"/>
</svg>
