<svg width="12" height="13" viewBox="0 0 12 13" fill="none" xmlns="http://www.w3.org/2000/svg">
    <g clip-path="url(#clip0_220_14812)">
        <path d="M8.15625 2.73818C7.57724 2.06947 6.92557 1.46733 6.21328 0.942864C6.15023 0.898694 6.07511 0.875 5.99813 0.875C5.92114 0.875 5.84602 0.898694 5.78297 0.942864C5.07199 1.46754 4.42159 2.06968 3.84375 2.73818C2.55516 4.21802 1.875 5.77802 1.875 7.2499C1.875 8.34391 2.3096 9.39312 3.08318 10.1667C3.85677 10.9403 4.90598 11.3749 6 11.3749C7.09402 11.3749 8.14323 10.9403 8.91682 10.1667C9.6904 9.39312 10.125 8.34391 10.125 7.2499C10.125 5.77802 9.44484 4.21802 8.15625 2.73818ZM6 10.6249C5.1052 10.6239 4.24733 10.268 3.61461 9.63528C2.98189 9.00256 2.62599 8.1447 2.625 7.2499C2.625 4.56724 5.22516 2.32802 6 1.71864C6.77484 2.32802 9.375 4.5663 9.375 7.2499C9.37401 8.1447 9.01811 9.00256 8.38539 9.63528C7.75267 10.268 6.8948 10.6239 6 10.6249ZM8.61984 7.68771C8.5226 8.23085 8.26129 8.73116 7.87108 9.12129C7.48088 9.51141 6.98051 9.77262 6.43734 9.86974C6.41672 9.87304 6.39588 9.87477 6.375 9.8749C6.28093 9.87487 6.19031 9.8395 6.12111 9.77578C6.05191 9.71207 6.00917 9.62468 6.00138 9.53094C5.9936 9.4372 6.02132 9.34395 6.07907 9.2697C6.13681 9.19544 6.22035 9.1456 6.31312 9.13005C7.08984 8.99927 7.74891 8.34021 7.88062 7.56208C7.89728 7.46399 7.95223 7.37654 8.03336 7.31896C8.1145 7.26138 8.21519 7.23839 8.31328 7.25505C8.41137 7.27171 8.49882 7.32665 8.5564 7.40779C8.61398 7.48893 8.63697 7.58962 8.62031 7.68771H8.61984Z" fill="white"/>
    </g>
    <defs>
        <clipPath id="clip0_220_14812">
            <rect width="12" height="12" fill="white" transform="translate(0 0.5)"/>
        </clipPath>
    </defs>
</svg>
