<svg width="35" height="31" viewBox="0 0 35 31" fill="none" xmlns="http://www.w3.org/2000/svg">
    <path d="M1.25 25.75H33.75C34.0815 25.75 34.3995 25.6183 34.6339 25.3839C34.8683 25.1495 35 24.8315 35 24.5C35 24.1685 34.8683 23.8505 34.6339 23.6161C34.3995 23.3817 34.0815 23.25 33.75 23.25H32.5V20.75C32.4954 16.9896 31.0804 13.3676 28.5344 10.6001C25.9885 7.83256 22.497 6.1208 18.75 5.80312V3.25H21.25C21.5815 3.25 21.8995 3.1183 22.1339 2.88388C22.3683 2.64946 22.5 2.33152 22.5 2C22.5 1.66848 22.3683 1.35054 22.1339 1.11612C21.8995 0.881696 21.5815 0.75 21.25 0.75H13.75C13.4185 0.75 13.1005 0.881696 12.8661 1.11612C12.6317 1.35054 12.5 1.66848 12.5 2C12.5 2.33152 12.6317 2.64946 12.8661 2.88388C13.1005 3.1183 13.4185 3.25 13.75 3.25H16.25V5.80312C12.503 6.1208 9.01149 7.83256 6.46556 10.6001C3.91964 13.3676 2.50455 16.9896 2.5 20.75V23.25H1.25C0.918479 23.25 0.600537 23.3817 0.366116 23.6161C0.131696 23.8505 0 24.1685 0 24.5C0 24.8315 0.131696 25.1495 0.366116 25.3839C0.600537 25.6183 0.918479 25.75 1.25 25.75ZM5 20.75C5 17.4348 6.31696 14.2554 8.66117 11.9112C11.0054 9.56696 14.1848 8.25 17.5 8.25C20.8152 8.25 23.9946 9.56696 26.3388 11.9112C28.683 14.2554 30 17.4348 30 20.75V23.25H5V20.75ZM35 29.5C35 29.8315 34.8683 30.1495 34.6339 30.3839C34.3995 30.6183 34.0815 30.75 33.75 30.75H1.25C0.918479 30.75 0.600537 30.6183 0.366116 30.3839C0.131696 30.1495 0 29.8315 0 29.5C0 29.1685 0.131696 28.8505 0.366116 28.6161C0.600537 28.3817 0.918479 28.25 1.25 28.25H33.75C34.0815 28.25 34.3995 28.3817 34.6339 28.6161C34.8683 28.8505 35 29.1685 35 29.5Z" fill="#405FF2"/>
</svg>
