<svg width="41" height="40" viewBox="0 0 41 40" fill="none" xmlns="http://www.w3.org/2000/svg">
    <path d="M34.2504 13.875V11.25C34.2504 9.5924 33.5919 8.00269 32.4198 6.83058C31.2477 5.65848 29.658 5 28.0004 5H13.0004C11.3428 5 9.75309 5.65848 8.58099 6.83058C7.40889 8.00269 6.75041 9.5924 6.75041 11.25V13.875C5.33755 14.1619 4.06731 14.9284 3.15493 16.0447C2.24256 17.1609 1.74414 18.5583 1.74414 20C1.74414 21.4417 2.24256 22.8391 3.15493 23.9553C4.06731 25.0716 5.33755 25.8381 6.75041 26.125V31.25C6.75041 31.913 7.0138 32.5489 7.48264 33.0178C7.95148 33.4866 8.58737 33.75 9.25041 33.75H31.7504C32.4134 33.75 33.0493 33.4866 33.5182 33.0178C33.987 32.5489 34.2504 31.913 34.2504 31.25V26.125C35.6633 25.8381 36.9335 25.0716 37.8459 23.9553C38.7583 22.8391 39.2567 21.4417 39.2567 20C39.2567 18.5583 38.7583 17.1609 37.8459 16.0447C36.9335 14.9284 35.6633 14.1619 34.2504 13.875ZM13.0004 7.5H28.0004C28.995 7.5 29.9488 7.89509 30.6521 8.59835C31.3553 9.30161 31.7504 10.2554 31.7504 11.25V13.875C30.3396 14.1651 29.072 14.9327 28.1612 16.0484C27.2504 17.1641 26.7522 18.5597 26.7504 20H14.2504C14.2486 18.5597 13.7504 17.1641 12.8396 16.0484C11.9288 14.9327 10.6612 14.1651 9.25041 13.875V11.25C9.25041 10.2554 9.64549 9.30161 10.3488 8.59835C11.052 7.89509 12.0058 7.5 13.0004 7.5ZM33.0613 23.75H33.0004C32.6689 23.75 32.3509 23.8817 32.1165 24.1161C31.8821 24.3505 31.7504 24.6685 31.7504 25V31.25H9.25041V25C9.25041 24.6685 9.11871 24.3505 8.88429 24.1161C8.64987 23.8817 8.33193 23.75 8.00041 23.75H7.93947C7.2005 23.738 6.48156 23.5079 5.87294 23.0886C5.26433 22.6693 4.79318 22.0795 4.51867 21.3933C4.24416 20.7071 4.17854 19.9551 4.33004 19.2318C4.48155 18.5084 4.84342 17.8459 5.37021 17.3276C5.897 16.8092 6.56522 16.458 7.29094 16.3182C8.01666 16.1784 8.76751 16.2561 9.44919 16.5417C10.1309 16.8272 10.713 17.3078 11.1224 17.9231C11.5318 18.5384 11.7503 19.2609 11.7504 20V26.25C11.7504 26.5815 11.8821 26.8995 12.1165 27.1339C12.3509 27.3683 12.6689 27.5 13.0004 27.5C13.3319 27.5 13.6499 27.3683 13.8843 27.1339C14.1187 26.8995 14.2504 26.5815 14.2504 26.25V22.5H26.7504V26.25C26.7504 26.5815 26.8821 26.8995 27.1165 27.1339C27.3509 27.3683 27.6689 27.5 28.0004 27.5C28.3319 27.5 28.6499 27.3683 28.8843 27.1339C29.1187 26.8995 29.2504 26.5815 29.2504 26.25V20C29.2505 19.2609 29.469 18.5384 29.8784 17.9231C30.2878 17.3078 30.8699 16.8272 31.5516 16.5417C32.2333 16.2561 32.9842 16.1784 33.7099 16.3182C34.4356 16.458 35.1038 16.8092 35.6306 17.3276C36.1574 17.8459 36.5193 18.5084 36.6708 19.2318C36.8223 19.9551 36.7566 20.7071 36.4821 21.3933C36.2076 22.0795 35.7365 22.6693 35.1279 23.0886C34.5193 23.5079 33.8003 23.738 33.0613 23.75Z" fill="#405FF2"/>
</svg>
