<svg width="28" height="28" viewBox="0 0 28 28" fill="none" xmlns="http://www.w3.org/2000/svg">
    <path fill-rule="evenodd" clip-rule="evenodd" d="M13.708 26.2498C13.225 26.2498 12.833 25.8578 12.833 25.3748V21.687C12.833 21.204 13.225 20.812 13.708 20.812C14.191 20.812 14.583 21.204 14.583 21.687V25.3748C14.583 25.8578 14.191 26.2498 13.708 26.2498Z" fill="#405FF2"/>
    <path fill-rule="evenodd" clip-rule="evenodd" d="M13.7078 2.9165C11.5774 2.9165 9.84375 4.6595 9.84375 6.80267V12.272C9.84375 14.4128 11.5774 16.157 13.7078 16.157C15.8381 16.157 17.5718 14.4128 17.5718 12.272V6.80267C17.5718 4.6595 15.8381 2.9165 13.7078 2.9165ZM13.7077 17.907C10.6126 17.907 8.09375 15.3788 8.09375 12.272V6.80267C8.09375 3.69467 10.6126 1.1665 13.7077 1.1665C16.8029 1.1665 19.3217 3.69467 19.3217 6.80267V12.272C19.3217 15.3788 16.8029 17.907 13.7077 17.907Z" fill="#405FF2"/>
    <mask id="mask0_242_16465" style="mask-type:luminance" maskUnits="userSpaceOnUse" x="3" y="11" width="21" height="12">
        <path fill-rule="evenodd" clip-rule="evenodd" d="M3.5 11.4341H23.9161V22.5617H3.5V11.4341Z" fill="white"/>
    </mask>
    <g mask="url(#mask0_242_16465)">
        <path fill-rule="evenodd" clip-rule="evenodd" d="M13.7074 22.5617C8.07819 22.5617 3.49902 17.9627 3.49902 12.3091C3.49902 11.8261 3.89102 11.4341 4.37402 11.4341C4.85819 11.4341 5.24902 11.8261 5.24902 12.3091C5.24902 16.9967 9.04302 20.8117 13.7074 20.8117C18.3717 20.8117 22.1657 16.9967 22.1657 12.3091C22.1657 11.8261 22.5577 11.4341 23.0407 11.4341C23.5249 11.4341 23.9157 11.8261 23.9157 12.3091C23.9157 17.9627 19.3365 22.5617 13.7074 22.5617Z" fill="#405FF2"/>
    </g>
</svg>
