<svg width="120" height="118" viewBox="0 0 120 118" fill="none" xmlns="http://www.w3.org/2000/svg">
    <g clip-path="url(#clip0_242_18135)">
        <path d="M76.1813 26.7758H43.8465C43.1097 26.7767 42.4033 27.0698 41.8822 27.5908C41.3612 28.1118 41.0681 28.8183 41.0672 29.5551V101.42L40.6966 101.533L32.7644 103.962C32.3884 104.076 31.9824 104.037 31.6353 103.853C31.2883 103.668 31.0287 103.354 30.9134 102.978L7.31859 25.9068C7.20376 25.5308 7.2429 25.1247 7.42739 24.7776C7.61189 24.4305 7.92664 24.1708 8.30248 24.0557L20.5261 20.3129L55.9626 9.46605L68.1861 5.72321C68.3721 5.66596 68.5676 5.64595 68.7614 5.66433C68.9551 5.68272 69.1433 5.73913 69.3153 5.83035C69.4872 5.92156 69.6395 6.04578 69.7633 6.19591C69.8872 6.34603 69.9803 6.51911 70.0372 6.70524L76.0683 26.4052L76.1813 26.7758Z" fill="#FAFAFA"/>
        <path d="M83.2367 26.4053L75.9678 2.66231C75.8468 2.26671 75.6491 1.89882 75.3859 1.57965C75.1228 1.26048 74.7993 0.996306 74.434 0.802208C74.0687 0.60811 73.6687 0.487895 73.2569 0.448438C72.8451 0.408981 72.4296 0.451054 72.0341 0.57225L54.8485 5.83261L19.4138 16.6813L2.22827 21.9435C1.42992 22.1887 0.761449 22.7405 0.369588 23.478C-0.0222729 24.2155 -0.10551 25.0784 0.138152 25.8772L24.9817 107.021C25.1797 107.666 25.5791 108.23 26.1213 108.631C26.6636 109.032 27.3201 109.249 27.9946 109.25C28.3068 109.25 28.6172 109.203 28.9154 109.111L40.6961 105.505L41.0667 105.39V105.003L40.6961 105.116L28.8061 108.757C28.1014 108.972 27.3403 108.898 26.6897 108.553C26.0391 108.207 25.5522 107.618 25.3357 106.913L0.493983 25.7679C0.386717 25.419 0.349332 25.0523 0.383968 24.6889C0.418603 24.3255 0.524575 23.9726 0.695823 23.6502C0.867071 23.3278 1.10023 23.0424 1.38194 22.8103C1.66366 22.5781 1.98839 22.4039 2.33756 22.2974L19.5231 17.0352L54.9579 6.18837L72.1435 0.926156C72.4083 0.845333 72.6836 0.804123 72.9605 0.803865C73.5548 0.805199 74.133 0.99678 74.6105 1.35055C75.0879 1.70431 75.4396 2.20167 75.6139 2.76978L82.8494 26.4053L82.9643 26.7759H83.3497L83.2367 26.4053Z" fill="#E0E0E0"/>
        <path d="M111.662 108.303H49.0339C48.6164 108.303 48.2161 108.137 47.9208 107.842C47.6255 107.546 47.4595 107.146 47.459 106.728V31.6863C47.4595 31.2687 47.6255 30.8684 47.9208 30.5731C48.2161 30.2779 48.6164 30.1118 49.0339 30.1113H111.662C112.079 30.1118 112.48 30.2779 112.775 30.5732C113.07 30.8684 113.236 31.2687 113.237 31.6863V106.728C113.236 107.146 113.07 107.546 112.775 107.842C112.48 108.137 112.079 108.303 111.662 108.303Z" fill="#FAFAFA"/>
        <path d="M82.8496 26.4053H43.8462C43.0112 26.4065 42.2107 26.7387 41.6202 27.3292C41.0297 27.9196 40.6975 28.7201 40.6963 29.5552V105.116L41.0669 105.003V29.5552C41.0678 28.8183 41.3609 28.1119 41.8819 27.5909C42.4029 27.0699 43.1094 26.7767 43.8462 26.7759H82.9645L82.8496 26.4053ZM116.85 26.4053H43.8462C43.0112 26.4065 42.2107 26.7387 41.6202 27.3292C41.0297 27.9196 40.6975 28.7201 40.6963 29.5552V114.418C40.6975 115.253 41.0297 116.053 41.6202 116.644C42.2107 117.234 43.0112 117.566 43.8462 117.568H116.85C117.685 117.566 118.486 117.234 119.076 116.644C119.667 116.053 119.999 115.253 120 114.418V29.5552C119.999 28.7201 119.667 27.9196 119.076 27.3292C118.486 26.7387 117.685 26.4065 116.85 26.4053ZM119.629 114.418C119.629 115.154 119.335 115.861 118.814 116.382C118.293 116.903 117.587 117.196 116.85 117.197H43.8462C43.1094 117.196 42.4029 116.903 41.8819 116.382C41.3609 115.861 41.0678 115.154 41.0669 114.418V29.5552C41.0678 28.8183 41.3609 28.1119 41.8819 27.5909C42.4029 27.0699 43.1094 26.7767 43.8462 26.7759H116.85C117.587 26.7767 118.293 27.0699 118.814 27.5909C119.335 28.1119 119.629 28.8183 119.629 29.5552V114.418Z" fill="#E0E0E0"/>
        <path d="M97.3946 34.5582H63.3014C62.8593 34.5577 62.4354 34.3819 62.1228 34.0693C61.8101 33.7566 61.6343 33.3328 61.6338 32.8906V24.7379C61.6343 24.2958 61.8101 23.8719 62.1228 23.5593C62.4354 23.2467 62.8593 23.0708 63.3014 23.0703H97.3946C97.8367 23.0708 98.2606 23.2467 98.5732 23.5593C98.8858 23.8719 99.0617 24.2958 99.0622 24.7379V32.8906C99.0617 33.3328 98.8859 33.7566 98.5732 34.0693C98.2606 34.3819 97.8367 34.5577 97.3946 34.5582Z" fill="#405FF2"/>
        <path d="M80.3484 23.6259C82.395 23.6259 84.0541 21.9668 84.0541 19.9201C84.0541 17.8735 82.395 16.2144 80.3484 16.2144C78.3017 16.2144 76.6426 17.8735 76.6426 19.9201C76.6426 21.9668 78.3017 23.6259 80.3484 23.6259Z" fill="#405FF2"/>
        <path d="M80.348 22.1774C81.5946 22.1774 82.6052 21.1669 82.6052 19.9203C82.6052 18.6737 81.5946 17.6631 80.348 17.6631C79.1014 17.6631 78.0908 18.6737 78.0908 19.9203C78.0908 21.1669 79.1014 22.1774 80.348 22.1774Z" fill="#FAFAFA"/>
        <path d="M22.7311 24.1162C22.3739 24.116 22.0263 24.0013 21.7391 23.789C21.452 23.5767 21.2404 23.2779 21.1355 22.9366L18.7489 15.1411C18.6847 14.9317 18.6625 14.7117 18.6834 14.4937C18.7043 14.2757 18.7679 14.064 18.8707 13.8706C18.9734 13.6772 19.1132 13.5059 19.2822 13.3666C19.4511 13.2272 19.6459 13.1225 19.8553 13.0584L52.4549 3.07805C52.8778 2.949 53.3346 2.99302 53.7251 3.20043C54.1156 3.40784 54.4078 3.76171 54.5377 4.18436L56.9243 11.9799C57.0532 12.4028 57.0092 12.8596 56.8018 13.25C56.5944 13.6405 56.2406 13.9328 55.8179 14.0627L23.2183 24.0431C23.0604 24.0915 22.8962 24.1162 22.7311 24.1162Z" fill="#405FF2"/>
        <path d="M35.2331 8.76215C37.2798 8.76215 38.9389 7.10302 38.9389 5.05637C38.9389 3.00972 37.2798 1.35059 35.2331 1.35059C33.1865 1.35059 31.5273 3.00972 31.5273 5.05637C31.5273 7.10302 33.1865 8.76215 35.2331 8.76215Z" fill="#405FF2"/>
        <path d="M35.2333 7.4032C36.5293 7.4032 37.58 6.35258 37.58 5.05658C37.58 3.76058 36.5293 2.70996 35.2333 2.70996C33.9373 2.70996 32.8867 3.76058 32.8867 5.05658C32.8867 6.35258 33.9373 7.4032 35.2333 7.4032Z" fill="#FAFAFA"/>
    </g>
    <defs>
        <clipPath id="clip0_242_18135">
            <rect width="120" height="117.135" fill="white" transform="translate(0 0.432617)"/>
        </clipPath>
    </defs>
</svg>
