<svg width="12" height="13" viewBox="0 0 12 13" fill="none" xmlns="http://www.w3.org/2000/svg">
    <path
        d="M11.6077 2.36999C11.6024 2.27825 11.5635 2.19167 11.4985 2.12669C11.4336 2.06171 11.347 2.02285 11.2552 2.01749C8.82898 1.87687 6.88086 2.61468 6.04367 3.99656C5.49054 4.91015 5.49148 6.01968 6.03617 7.07812C5.72614 7.44719 5.49956 7.87893 5.37195 8.34374L4.60929 7.57828C4.97586 6.81281 4.96179 6.01499 4.56242 5.35218C3.94367 4.33078 2.51539 3.78328 0.742106 3.88734C0.650365 3.8927 0.563785 3.93155 0.498803 3.99654C0.433822 4.06152 0.394964 4.1481 0.389606 4.23984C0.285075 6.01312 0.833044 7.4414 1.85445 8.06015C2.19151 8.26608 2.57883 8.37508 2.97383 8.37515C3.35722 8.37043 3.73464 8.2796 4.0782 8.10937L5.25008 9.28124V10.6252C5.25008 10.7246 5.28958 10.82 5.35991 10.8903C5.43024 10.9606 5.52562 11.0002 5.62508 11.0002C5.72453 11.0002 5.81991 10.9606 5.89024 10.8903C5.96057 10.82 6.00008 10.7246 6.00008 10.6252V9.24281C5.99841 8.64623 6.20142 8.06713 6.57523 7.60218C7.05755 7.85424 7.59247 7.98914 8.13664 7.99593C8.66275 7.99763 9.1791 7.8539 9.62867 7.58062C11.0105 6.74437 11.7502 4.79624 11.6077 2.36999ZM2.24117 7.4189C1.52211 6.98343 1.11523 5.95265 1.12507 4.62515C2.45258 4.6139 3.48336 5.02218 3.91883 5.74124C4.14617 6.11624 4.1832 6.55359 4.03414 7.00406L2.88992 5.85984C2.81902 5.79248 2.72461 5.75548 2.62683 5.75674C2.52904 5.75799 2.43562 5.79739 2.36646 5.86654C2.29731 5.93569 2.25791 6.02912 2.25666 6.1269C2.25541 6.22469 2.29241 6.3191 2.35976 6.38999L3.50398 7.53421C3.05351 7.68328 2.61664 7.64624 2.24117 7.4189ZM9.24008 6.93984C8.61195 7.31999 7.87367 7.34906 7.12367 7.03359L9.64039 4.5164C9.70775 4.4455 9.74474 4.3511 9.74349 4.25331C9.74224 4.15552 9.70284 4.0621 9.63369 3.99295C9.56454 3.9238 9.47111 3.88439 9.37332 3.88314C9.27554 3.88189 9.18113 3.91889 9.11023 3.98624L6.59304 6.50015C6.27617 5.75015 6.30476 5.0114 6.68679 4.38374C7.34023 3.30562 8.88992 2.70468 10.8741 2.75109C10.9191 4.73484 10.3191 6.2864 9.24008 6.93984Z"
        fill="white" />
</svg>