<svg width="48" height="48" viewBox="0 0 48 48" fill="none" xmlns="http://www.w3.org/2000/svg">
    <path d="M31.7751 39.1682C32.5309 37.5794 31.3724 35.7455 29.613 35.7455L18.4728 35.7455C16.6895 35.7455 15.5321 37.6253 16.335 39.2177L17.0451 40.626C17.4521 41.4332 18.279 41.9423 19.183 41.9423L28.9431 41.9423C29.8669 41.9423 30.7083 41.4108 31.1052 40.5765L31.7751 39.1682Z" fill="white" stroke="#405FF2" stroke-width="0.845028"/>
    <path d="M45.4024 20.7471C44.1253 20.3197 42.805 21.2701 42.805 22.6169V25.3839C42.805 26.7456 44.1525 27.6974 45.4359 27.2422C46.2227 26.9631 46.7485 26.2187 46.7485 25.3839V22.6169C46.7485 21.769 46.2065 21.0161 45.4024 20.7471Z" fill="white" stroke="#405FF2" stroke-width="0.845028"/>
    <path d="M42.1632 10.078C41.9915 9.78779 41.6708 9.68283 41.3902 9.76621C41.1138 9.84832 40.9037 10.1041 40.9037 10.4322V19.3381C40.9037 19.727 41.2189 20.0422 41.6078 20.0422H43.0162C43.4024 20.0422 43.7204 19.7311 43.7204 19.3394V19.3352V19.3309V19.3266V19.3223V19.318V19.3136V19.3092V19.3047V19.3003V19.2958V19.2913V19.2867V19.2821V19.2775V19.2729V19.2682V19.2635V19.2588V19.254V19.2493V19.2445V19.2396V19.2348V19.2299V19.225V19.22V19.215V19.21V19.205V19.2V19.1949V19.1898V19.1846V19.1795V19.1743V19.1691V19.1638V19.1585V19.1532V19.1479V19.1426V19.1372V19.1318V19.1263V19.1209V19.1154V19.1099V19.1044V19.0988V19.0932V19.0876V19.0819V19.0763V19.0706V19.0649V19.0591V19.0533V19.0475V19.0417V19.0359V19.03V19.0241V19.0182V19.0122V19.0063V19.0003V18.9942V18.9882V18.9821V18.976V18.9699V18.9637V18.9575V18.9513V18.9451V18.9389V18.9326V18.9263V18.92V18.9136V18.9073V18.9009V18.8944V18.888V18.8815V18.875V18.8685V18.862V18.8554V18.8488V18.8422V18.8356V18.8289V18.8222V18.8155V18.8088V18.8021V18.7953V18.7885V18.7817V18.7748V18.768V18.7611V18.7541V18.7472V18.7402V18.7333V18.7263V18.7192V18.7122V18.7051V18.698V18.6909V18.6838V18.6766V18.6694V18.6622V18.655V18.6477V18.6405V18.6332V18.6258V18.6185V18.6112V18.6038V18.5964V18.5889V18.5815V18.574V18.5665V18.559V18.5515V18.544V18.5364V18.5288V18.5212V18.5135V18.5059V18.4982V18.4905V18.4828V18.475V18.4673V18.4595V18.4517V18.4439V18.436V18.4282V18.4203V18.4124V18.4045V18.3965V18.3886V18.3806V18.3726V18.3646V18.3565V18.3485V18.3404V18.3323V18.3242V18.316V18.3079V18.2997V18.2915V18.2833V18.275V18.2668V18.2585V18.2502V18.2419V18.2336V18.2252V18.2169V18.2085V18.2001V18.1916V18.1832V18.1747V18.1663V18.1578V18.1493V18.1407V18.1322V18.1236V18.115V18.1064V18.0978V18.0892V18.0805V18.0718V18.0631V18.0544V18.0457V18.0369V18.0282V18.0194V18.0106V18.0018V17.993V17.9841V17.9753V17.9664V17.9575V17.9486V17.9396V17.9307V17.9217V17.9127V17.9037V17.8947V17.8857V17.8766V17.8676V17.8585V17.8494V17.8403V17.8312V17.822V17.8128V17.8037V17.7945V17.7853V17.776V17.7668V17.7576V17.7483V17.739V17.7297V17.7204V17.7111V17.7017V17.6923V17.683V17.6736V17.6642V17.6547V17.6453V17.6359V17.6264V17.6169V17.6074V17.5979V17.5884V17.5789V17.5693V17.5597V17.5502V17.5406V17.531V17.5213V17.5117V17.502V17.4924V17.4827V17.473V17.4633V17.4536V17.4439V17.4341V17.4243V17.4146V17.4048V17.395V17.3852V17.3754V17.3655V17.3557V17.3458V17.3359V17.326V17.3161V17.3062V17.2963V17.2863V17.2764V17.2664V17.2565V17.2465V17.2365V17.2264V17.2164V17.2064V17.1963V17.1863V17.1762V17.1661V17.156V17.1459V17.1358V17.1256V17.1155V17.1053V17.0952V17.085V17.0748V17.0646V17.0544V17.0442V17.0339V17.0237V17.0134V17.0032V16.9929V16.9826V16.9723V16.962V16.9517V16.9413V16.931V16.9207V16.9103V16.8999V16.8895V16.8791V16.8687V16.8583V16.8479V16.8375V16.827V16.8166V16.8061V16.7956V16.7852V16.7747V16.7642V16.7537V16.7431V16.7326V16.7221V16.7115V16.701V16.6904V16.6798V16.6693V16.6587V16.6481V16.6375V16.6268V16.6162V16.6056V16.5949V16.5843V16.5736V16.563V16.5523V16.5416V16.5309V16.5202V16.5095V16.4988V16.4881V16.4773V16.4666V16.4558V16.4451V16.4343V16.4235V16.4128V16.402V16.3912V16.3804V16.3696V16.3588V16.3479V16.3371V16.3263V16.3154V16.3046V16.2937V16.2829V16.272V16.2611V16.2502V16.2394V16.2285V16.2176V16.2066V16.1957V16.1848V16.1739V16.163V16.152V16.1411V16.1301V16.1192V16.1082V16.0972V16.0863V16.0753V16.0643V16.0533V16.0423V16.0313V16.0203V16.0093V15.9983V15.9873V15.9762V15.9652V15.9542V15.9431V15.9321V15.921V15.91V15.8989V15.8878V15.8768V15.8657V15.8546V15.8435V15.8325V15.8214V15.8103V15.7992V15.7881V15.777V15.7658V15.7547V15.7436V15.7325V15.7214V15.7102V15.6991V15.688V15.6768V15.6657V15.6545V15.6434V15.6322V15.6211V15.6099V15.5988V15.5876V15.5764V15.5653V15.5541V15.5429V15.5317V15.5206V15.5094V15.4982V15.487V15.4758V15.4646V15.4534V15.4422V15.431V15.4198V15.4086V15.3974V15.3862V15.375V15.3638V15.3526V15.3414V15.3301V15.3189V15.3077V15.2965V15.2853V15.2741V15.2628V15.2516V15.2404V15.2292V15.2179V15.2067V15.1955V15.1842V15.173V15.1618V15.1506V15.1393V15.1281V15.1169V15.1056V15.0944V15.0832V15.0719V15.0607V15.0495V15.0382V15.027V15.0158V15.0045V14.9933V14.9821V14.9708V14.9596V14.9484V14.9371V14.9259V14.9147V14.9035V14.8922V14.881V14.8698V14.8586V14.8473V14.8361V14.8249V14.8137V14.8025V14.7912V14.78V14.7688V14.7576V14.7464V14.7352V14.724V14.7128C43.7204 12.9607 42.7489 11.068 42.1632 10.078Z" fill="white" stroke="#405FF2" stroke-width="0.845028"/>
    <path d="M41.8654 18.3827C40.3164 17.8717 38.721 19.0253 38.721 20.6564V27.2634C38.721 28.9124 40.3491 30.0678 41.9056 29.5235L43.314 29.031C44.2746 28.695 44.9179 27.7886 44.9179 26.7709V21.1211C44.9179 20.0878 44.255 19.1711 43.2738 18.8474L41.8654 18.3827Z" fill="white" stroke="#405FF2" stroke-width="0.845028"/>
    <path d="M2.60441 20.7471C3.88158 20.3197 5.20181 21.2701 5.20181 22.6169V25.3839C5.20181 26.7456 3.85432 27.6974 2.57095 27.2422C1.78413 26.9631 1.25835 26.2187 1.25835 25.3839V22.6169C1.25835 21.769 1.80037 21.0161 2.60441 20.7471Z" fill="white" stroke="#405FF2" stroke-width="0.845028"/>
    <path d="M6.14144 18.3827C7.69042 17.8717 9.2858 19.0253 9.2858 20.6564V27.2634C9.2858 28.9124 7.65778 30.0678 6.10121 29.5235L4.69283 29.031C3.73222 28.695 3.08892 27.7886 3.08892 26.7709V21.1211C3.08892 20.0878 3.7518 19.1711 4.73306 18.8474L6.14144 18.3827Z" fill="white" stroke="#405FF2" stroke-width="0.845028"/>
    <path d="M5.84362 10.078C6.01532 9.78779 6.33604 9.68283 6.61668 9.76621C6.89305 9.84832 7.10318 10.1041 7.10318 10.4322V19.3381C7.10318 19.727 6.7879 20.0422 6.39899 20.0422H4.99061C4.60441 20.0422 4.28642 19.7311 4.28642 19.3394V19.3352V19.3309V19.3266V19.3223V19.318V19.3136V19.3092V19.3047V19.3003V19.2958V19.2913V19.2867V19.2821V19.2775V19.2729V19.2682V19.2635V19.2588V19.254V19.2493V19.2445V19.2396V19.2348V19.2299V19.225V19.22V19.215V19.21V19.205V19.2V19.1949V19.1898V19.1846V19.1795V19.1743V19.1691V19.1638V19.1585V19.1532V19.1479V19.1426V19.1372V19.1318V19.1263V19.1209V19.1154V19.1099V19.1044V19.0988V19.0932V19.0876V19.0819V19.0763V19.0706V19.0649V19.0591V19.0533V19.0475V19.0417V19.0359V19.03V19.0241V19.0182V19.0122V19.0063V19.0003V18.9942V18.9882V18.9821V18.976V18.9699V18.9637V18.9575V18.9513V18.9451V18.9389V18.9326V18.9263V18.92V18.9136V18.9073V18.9009V18.8944V18.888V18.8815V18.875V18.8685V18.862V18.8554V18.8488V18.8422V18.8356V18.8289V18.8222V18.8155V18.8088V18.8021V18.7953V18.7885V18.7817V18.7748V18.768V18.7611V18.7541V18.7472V18.7402V18.7333V18.7263V18.7192V18.7122V18.7051V18.698V18.6909V18.6838V18.6766V18.6694V18.6622V18.655V18.6477V18.6405V18.6332V18.6258V18.6185V18.6112V18.6038V18.5964V18.5889V18.5815V18.574V18.5665V18.559V18.5515V18.544V18.5364V18.5288V18.5212V18.5135V18.5059V18.4982V18.4905V18.4828V18.475V18.4673V18.4595V18.4517V18.4439V18.436V18.4282V18.4203V18.4124V18.4045V18.3965V18.3886V18.3806V18.3726V18.3646V18.3565V18.3485V18.3404V18.3323V18.3242V18.316V18.3079V18.2997V18.2915V18.2833V18.275V18.2668V18.2585V18.2502V18.2419V18.2336V18.2252V18.2169V18.2085V18.2001V18.1916V18.1832V18.1747V18.1663V18.1578V18.1493V18.1407V18.1322V18.1236V18.115V18.1064V18.0978V18.0892V18.0805V18.0718V18.0631V18.0544V18.0457V18.0369V18.0282V18.0194V18.0106V18.0018V17.993V17.9841V17.9753V17.9664V17.9575V17.9486V17.9396V17.9307V17.9217V17.9127V17.9037V17.8947V17.8857V17.8766V17.8676V17.8585V17.8494V17.8403V17.8312V17.822V17.8128V17.8037V17.7945V17.7853V17.776V17.7668V17.7576V17.7483V17.739V17.7297V17.7204V17.7111V17.7017V17.6923V17.683V17.6736V17.6642V17.6547V17.6453V17.6359V17.6264V17.6169V17.6074V17.5979V17.5884V17.5789V17.5693V17.5597V17.5502V17.5406V17.531V17.5213V17.5117V17.502V17.4924V17.4827V17.473V17.4633V17.4536V17.4439V17.4341V17.4243V17.4146V17.4048V17.395V17.3852V17.3754V17.3655V17.3557V17.3458V17.3359V17.326V17.3161V17.3062V17.2963V17.2863V17.2764V17.2664V17.2565V17.2465V17.2365V17.2264V17.2164V17.2064V17.1963V17.1863V17.1762V17.1661V17.156V17.1459V17.1358V17.1256V17.1155V17.1053V17.0952V17.085V17.0748V17.0646V17.0544V17.0442V17.0339V17.0237V17.0134V17.0032V16.9929V16.9826V16.9723V16.962V16.9517V16.9413V16.931V16.9207V16.9103V16.8999V16.8895V16.8791V16.8687V16.8583V16.8479V16.8375V16.827V16.8166V16.8061V16.7956V16.7852V16.7747V16.7642V16.7537V16.7431V16.7326V16.7221V16.7115V16.701V16.6904V16.6798V16.6693V16.6587V16.6481V16.6375V16.6268V16.6162V16.6056V16.5949V16.5843V16.5736V16.563V16.5523V16.5416V16.5309V16.5202V16.5095V16.4988V16.4881V16.4773V16.4666V16.4558V16.4451V16.4343V16.4235V16.4128V16.402V16.3912V16.3804V16.3696V16.3588V16.3479V16.3371V16.3263V16.3154V16.3046V16.2937V16.2829V16.272V16.2611V16.2502V16.2394V16.2285V16.2176V16.2066V16.1957V16.1848V16.1739V16.163V16.152V16.1411V16.1301V16.1192V16.1082V16.0972V16.0863V16.0753V16.0643V16.0533V16.0423V16.0313V16.0203V16.0093V15.9983V15.9873V15.9762V15.9652V15.9542V15.9431V15.9321V15.921V15.91V15.8989V15.8878V15.8768V15.8657V15.8546V15.8435V15.8325V15.8214V15.8103V15.7992V15.7881V15.777V15.7658V15.7547V15.7436V15.7325V15.7214V15.7102V15.6991V15.688V15.6768V15.6657V15.6545V15.6434V15.6322V15.6211V15.6099V15.5988V15.5876V15.5764V15.5653V15.5541V15.5429V15.5317V15.5206V15.5094V15.4982V15.487V15.4758V15.4646V15.4534V15.4422V15.431V15.4198V15.4086V15.3974V15.3862V15.375V15.3638V15.3526V15.3414V15.3301V15.3189V15.3077V15.2965V15.2853V15.2741V15.2628V15.2516V15.2404V15.2292V15.2179V15.2067V15.1955V15.1842V15.173V15.1618V15.1506V15.1393V15.1281V15.1169V15.1056V15.0944V15.0832V15.0719V15.0607V15.0495V15.0382V15.027V15.0158V15.0045V14.9933V14.9821V14.9708V14.9596V14.9484V14.9371V14.9259V14.9147V14.9035V14.8922V14.881V14.8698V14.8586V14.8473V14.8361V14.8249V14.8137V14.8025V14.7912V14.78V14.7688V14.7576V14.7464V14.7352V14.724V14.7128C4.28642 12.9607 5.25791 11.068 5.84362 10.078Z" fill="white" stroke="#405FF2" stroke-width="0.845028"/>
    <path d="M30.1504 7.78685C30.9455 9.81891 29.4471 12.0143 27.265 12.0143L20.8269 12.0143C18.6181 12.0143 17.1186 9.7691 17.9649 7.72881C18.4448 6.57172 19.5742 5.81744 20.8269 5.81744L27.265 5.81744C28.5405 5.81744 29.6857 6.59906 30.1504 7.78685Z" fill="white" stroke="#405FF2" stroke-width="0.845028"/>
    <path d="M24.0032 39.9005C33.9108 39.9005 42.0305 32.7579 42.0305 23.8449C42.0305 14.9319 33.9108 7.7894 24.0032 7.7894C14.0956 7.7894 5.97592 14.9319 5.97592 23.8449C5.97592 32.7579 14.0956 39.9005 24.0032 39.9005Z" fill="white" stroke="#405FF2" stroke-width="0.845028"/>
    <path d="M36.8891 24.3074C36.8891 30.5938 31.1363 35.7453 23.9672 35.7453C16.7982 35.7453 11.0453 30.5938 11.0453 24.3074C11.0453 22.7335 11.4042 21.4742 12.0395 20.4663C12.6753 19.4579 13.5993 18.6833 14.758 18.0975C17.0858 16.9206 20.331 16.5209 23.9672 16.5209C27.6035 16.5209 30.8487 16.9206 33.1765 18.0975C34.3352 18.6833 35.2592 19.4579 35.8949 20.4663C36.5303 21.4742 36.8891 22.7335 36.8891 24.3074Z" fill="#1F222A" stroke="#424242" stroke-width="0.563352"/>
    <path d="M39.3893 30.8164C29.4954 40.7455 17.7706 40.5342 8.65137 30.8164C12.6083 36.3863 17.1429 39.2117 23.9675 39.2315C30.8283 39.2513 36.2204 35.6401 39.3893 30.8164Z" fill="#EEEEEE"/>
    <path d="M26.4674 31.2714C26.4674 32.4035 25.3639 32.9991 24.0028 32.9991C22.6416 32.9991 21.5381 32.4035 21.5381 31.2714C21.5381 30.1393 22.6416 30.0415 24.0028 30.0415C25.3639 30.0415 26.4674 30.1393 26.4674 31.2714Z" fill="#405FF2"/>
    <ellipse cx="28.8967" cy="23.7744" rx="3.3449" ry="4.15472" fill="#405FF2"/>
    <ellipse cx="29.4244" cy="22.9995" rx="2.32383" ry="2.88718" fill="white"/>
    <ellipse cx="19.1086" cy="23.7744" rx="3.3449" ry="4.15472" fill="#405FF2"/>
    <ellipse cx="19.6363" cy="22.9995" rx="2.32383" ry="2.88718" fill="white"/>
    <path d="M32.054 14.2358C31.627 14.9755 30.6131 15.1895 29.7894 14.714C28.9658 14.2384 28.6442 13.2534 29.0712 12.5137C29.4983 11.7741 30.2712 11.9773 31.0949 12.4528C31.9186 12.9284 32.481 13.4962 32.054 14.2358Z" fill="#405FF2"/>
    <path d="M15.944 14.2358C16.3711 14.9755 17.3849 15.1895 18.2086 14.714C19.0323 14.2384 19.3538 13.2534 18.9268 12.5137C18.4998 11.7741 17.7268 11.9773 16.9031 12.4528C16.0795 12.9284 15.517 13.4962 15.944 14.2358Z" fill="#405FF2"/>
    <path d="M26.1863 12.3075C26.1863 13.3901 25.2089 14.2677 24.0033 14.2677C22.7977 14.2677 21.8203 13.3901 21.8203 12.3075C21.8203 11.2249 22.7977 10.958 24.0033 10.958C25.2089 10.958 26.1863 11.2249 26.1863 12.3075Z" fill="#405FF2"/>
</svg>
