<svg width="12" height="13" viewBox="0 0 12 13" fill="none" xmlns="http://www.w3.org/2000/svg">
    <path d="M8.625 9.125C8.625 9.52282 8.46696 9.90436 8.18566 10.1857C7.90436 10.467 7.52282 10.625 7.125 10.625C6.48281 10.625 5.86172 10.2064 5.64844 9.63031C5.61598 9.53756 5.62123 9.43578 5.66305 9.34686C5.70487 9.25794 5.77992 9.18899 5.87206 9.15484C5.9642 9.12069 6.06606 9.12406 6.15573 9.16424C6.2454 9.20442 6.31572 9.27819 6.35156 9.36969C6.45656 9.65328 6.79688 9.875 7.125 9.875C7.32391 9.875 7.51468 9.79598 7.65533 9.65533C7.79598 9.51468 7.875 9.32391 7.875 9.125C7.875 8.92609 7.79598 8.73532 7.65533 8.59467C7.51468 8.45402 7.32391 8.375 7.125 8.375H1.875C1.77554 8.375 1.68016 8.33549 1.60984 8.26517C1.53951 8.19484 1.5 8.09946 1.5 8C1.5 7.90054 1.53951 7.80516 1.60984 7.73483C1.68016 7.66451 1.77554 7.625 1.875 7.625H7.125C7.52282 7.625 7.90436 7.78304 8.18566 8.06434C8.46696 8.34564 8.625 8.72718 8.625 9.125ZM5.625 5.375C6.02282 5.375 6.40436 5.21696 6.68566 4.93566C6.96696 4.65436 7.125 4.27282 7.125 3.875C7.125 3.47718 6.96696 3.09564 6.68566 2.81434C6.40436 2.53304 6.02282 2.375 5.625 2.375C4.98281 2.375 4.36172 2.79359 4.14844 3.36969C4.11598 3.46244 4.12123 3.56422 4.16305 3.65314C4.20487 3.74206 4.27992 3.81101 4.37206 3.84516C4.4642 3.87931 4.56606 3.87594 4.65573 3.83576C4.7454 3.79558 4.81572 3.72181 4.85156 3.63031C4.95656 3.34672 5.29688 3.125 5.625 3.125C5.82391 3.125 6.01468 3.20402 6.15533 3.34467C6.29598 3.48532 6.375 3.67609 6.375 3.875C6.375 4.07391 6.29598 4.26468 6.15533 4.40533C6.01468 4.54598 5.82391 4.625 5.625 4.625H1.125C1.02554 4.625 0.930161 4.66451 0.859835 4.73484C0.789509 4.80516 0.75 4.90054 0.75 5C0.75 5.09946 0.789509 5.19484 0.859835 5.26516C0.930161 5.33549 1.02554 5.375 1.125 5.375H5.625ZM9.75 3.875C9.10781 3.875 8.48672 4.29359 8.27344 4.86969C8.24098 4.96244 8.24623 5.06422 8.28805 5.15314C8.32987 5.24206 8.40492 5.31101 8.49706 5.34516C8.5892 5.37931 8.69106 5.37594 8.78073 5.33576C8.8704 5.29558 8.94072 5.22181 8.97656 5.13031C9.08156 4.84672 9.42188 4.625 9.75 4.625C9.94891 4.625 10.1397 4.70402 10.2803 4.84467C10.421 4.98532 10.5 5.17609 10.5 5.375C10.5 5.57391 10.421 5.76468 10.2803 5.90533C10.1397 6.04598 9.94891 6.125 9.75 6.125H1.5C1.40054 6.125 1.30516 6.16451 1.23483 6.23484C1.16451 6.30516 1.125 6.40054 1.125 6.5C1.125 6.59946 1.16451 6.69484 1.23483 6.76517C1.30516 6.83549 1.40054 6.875 1.5 6.875H9.75C10.1478 6.875 10.5294 6.71696 10.8107 6.43566C11.092 6.15436 11.25 5.77282 11.25 5.375C11.25 4.97718 11.092 4.59564 10.8107 4.31434C10.5294 4.03304 10.1478 3.875 9.75 3.875Z" fill="white"/>
</svg>
