<svg width="41" height="40" viewBox="0 0 41 40" fill="none" xmlns="http://www.w3.org/2000/svg">
    <path d="M35.8953 8.81415L20.8953 3.81416C20.6387 3.72861 20.3613 3.72861 20.1047 3.81416L5.10469 8.81415C4.85579 8.89713 4.63931 9.05631 4.48591 9.26916C4.33252 9.48201 4.24998 9.73773 4.25 10.0001V22.5001C4.25 22.8316 4.3817 23.1496 4.61612 23.384C4.85054 23.6184 5.16848 23.7501 5.5 23.7501C5.83152 23.7501 6.14946 23.6184 6.38388 23.384C6.6183 23.1496 6.75 22.8316 6.75 22.5001V11.7345L11.9984 13.4829C10.604 15.7357 10.1606 18.4498 10.7655 21.0293C11.3705 23.6088 12.9744 25.8428 15.225 27.2407C12.4125 28.3438 9.98125 30.3392 8.20312 33.0673C8.11065 33.2047 8.04642 33.3592 8.01416 33.5217C7.9819 33.6842 7.98226 33.8514 8.01522 34.0138C8.04818 34.1761 8.11308 34.3303 8.20615 34.4673C8.29922 34.6044 8.4186 34.7216 8.55735 34.8121C8.6961 34.9026 8.85146 34.9646 9.01439 34.9945C9.17732 35.0244 9.34457 35.0217 9.50643 34.9864C9.66829 34.9511 9.82152 34.884 9.95722 34.789C10.0929 34.694 10.2084 34.5729 10.2969 34.4329C12.6516 30.8204 16.3703 28.7501 20.5 28.7501C24.6297 28.7501 28.3484 30.8204 30.7031 34.4329C30.8865 34.7054 31.1697 34.8948 31.4915 34.9601C31.8134 35.0255 32.148 34.9615 32.4231 34.7821C32.6982 34.6027 32.8916 34.3222 32.9616 34.0013C33.0315 33.6804 32.9723 33.3449 32.7969 33.0673C31.0187 30.3392 28.5781 28.3438 25.775 27.2407C28.0235 25.8428 29.6258 23.6103 30.2307 21.0327C30.8356 18.4551 30.3935 15.7429 29.0016 13.4907L35.8953 11.1938C36.1443 11.1109 36.3608 10.9518 36.5143 10.7389C36.6677 10.526 36.7503 10.2703 36.7503 10.0079C36.7503 9.74551 36.6677 9.48976 36.5143 9.27691C36.3608 9.06406 36.1443 8.90489 35.8953 8.82197V8.81415ZM28 18.7501C28.0003 19.9358 27.7195 21.1047 27.1806 22.1609C26.6418 23.2171 25.8601 24.1304 24.8999 24.826C23.9397 25.5216 22.8282 25.9796 21.6567 26.1625C20.4851 26.3454 19.2869 26.2478 18.1604 25.878C17.0338 25.5081 16.0111 24.8764 15.1759 24.0347C14.3408 23.193 13.7171 22.1652 13.3561 21.0358C12.9951 19.9064 12.907 18.7075 13.099 17.5374C13.2911 16.3674 13.7578 15.2595 14.4609 14.3048L20.1047 16.1798C20.3613 16.2653 20.6387 16.2653 20.8953 16.1798L26.5391 14.3048C27.4887 15.5923 28.0008 17.1502 28 18.7501ZM20.5 13.6829L9.45312 10.0001L20.5 6.31728L31.5469 10.0001L20.5 13.6829Z" fill="#405FF2"/>
</svg>
