<svg width="24" height="24" viewBox="0 0 24 24" fill="none" xmlns="http://www.w3.org/2000/svg">
    <path d="M0 12C0 5.37258 5.37258 0 12 0C18.6274 0 24 5.37258 24 12C24 18.6274 18.6274 24 12 24C5.37258 24 0 18.6274 0 12Z" fill="#405FF2"/>
    <path d="M17.3884 9.55024L10.7884 16.1502C10.7309 16.2079 10.6626 16.2537 10.5874 16.2849C10.5122 16.3161 10.4315 16.3322 10.3501 16.3322C10.2687 16.3322 10.188 16.3161 10.1128 16.2849C10.0376 16.2537 9.9693 16.2079 9.91182 16.1502L7.02432 13.2627C6.96676 13.2052 6.9211 13.1369 6.88995 13.0617C6.85881 12.9865 6.84277 12.9059 6.84277 12.8245C6.84277 12.7431 6.85881 12.6625 6.88995 12.5873C6.9211 12.5121 6.96676 12.4437 7.02432 12.3862C7.08187 12.3286 7.1502 12.283 7.2254 12.2518C7.3006 12.2207 7.3812 12.2046 7.4626 12.2046C7.54399 12.2046 7.62459 12.2207 7.69979 12.2518C7.77499 12.283 7.84332 12.3286 7.90088 12.3862L10.3506 14.8359L16.5128 8.67471C16.6291 8.55847 16.7867 8.49316 16.9511 8.49316C17.1155 8.49316 17.2732 8.55847 17.3894 8.67471C17.5056 8.79095 17.571 8.9486 17.571 9.11299C17.571 9.27737 17.5056 9.43503 17.3894 9.55127L17.3884 9.55024Z" fill="white"/>
</svg>
