<svg width="25" height="24" viewBox="0 0 25 24" fill="none" xmlns="http://www.w3.org/2000/svg">
    <path fill-rule="evenodd" clip-rule="evenodd" d="M9.07812 16.1353C9.07812 15.721 9.41391 15.3853 9.82812 15.3853H15.6431C16.0573 15.3853 16.3931 15.721 16.3931 16.1353C16.3931 16.5495 16.0573 16.8853 15.6431 16.8853H9.82812C9.41391 16.8853 9.07812 16.5495 9.07812 16.1353Z" fill="#9E9E9E"/>
    <path fill-rule="evenodd" clip-rule="evenodd" d="M7.56025 5.97765C7.1477 6.35978 6.77729 6.68822 6.44801 6.97845C6.40154 7.01941 6.35603 7.05949 6.31144 7.09875C6.03253 7.34435 5.78964 7.55824 5.57146 7.75963C5.06615 8.22608 4.74696 8.57827 4.52124 8.97216C4.06874 9.76176 3.90039 10.869 3.90039 13.713C3.90039 15.7691 4.02345 17.2451 4.30155 18.3153C4.57454 19.3658 4.98151 19.9679 5.52061 20.3548C6.08365 20.759 6.88743 20.9997 8.09784 21.1245C9.30705 21.2491 10.8154 21.25 12.7364 21.25C14.6574 21.25 16.1657 21.2491 17.3749 21.1245C18.5854 20.9997 19.3891 20.759 19.9522 20.3548C20.4913 19.9679 20.8982 19.3658 21.1712 18.3153C21.4493 17.2451 21.5724 15.7691 21.5724 13.713C21.5724 10.8689 21.4043 9.76166 20.952 8.97204C20.7264 8.57818 20.4073 8.22601 19.9021 7.75958C19.6838 7.55801 19.4407 7.34391 19.1615 7.09801C19.1171 7.05898 19.0719 7.01914 19.0257 6.97843C18.6965 6.6882 18.326 6.35976 17.9135 5.97762C17.6693 5.78041 17.4163 5.56703 17.1541 5.34588C16.583 4.86414 15.9681 4.34554 15.3048 3.87695C14.3199 3.18118 13.4279 2.75 12.7084 2.75C11.9913 2.75 11.1114 3.18121 10.1395 3.87803C9.50523 4.33278 8.925 4.827 8.37981 5.29137C8.09815 5.53128 7.82583 5.76323 7.56025 5.97765ZM9.26551 2.65897C10.2658 1.94179 11.4825 1.25 12.7084 1.25C13.9309 1.25 15.1574 1.93632 16.1702 2.6518C16.8862 3.15759 17.5945 3.75449 18.1874 4.25416C18.4403 4.46729 18.6722 4.66274 18.8748 4.82587C18.8884 4.83681 18.9016 4.84822 18.9144 4.86008C19.3204 5.23662 19.6858 5.5607 20.0176 5.85318C20.0626 5.89284 20.1071 5.93205 20.1511 5.97083C20.429 6.21553 20.6872 6.4429 20.9196 6.65748C21.4589 7.15537 21.9128 7.63157 22.2536 8.22646C22.934 9.41434 23.0724 10.9261 23.0724 13.713C23.0724 15.8004 22.9506 17.432 22.623 18.6926C22.2904 19.9727 21.7309 20.9245 20.8269 21.5734C19.9468 22.2051 18.8307 22.4824 17.5287 22.6166C16.2341 22.75 14.6498 22.75 12.7735 22.75H12.6992C10.823 22.75 9.2387 22.75 7.94404 22.6166C6.64204 22.4824 5.52601 22.2051 4.64592 21.5734C3.7419 20.9245 3.18243 19.9727 2.84976 18.6926C2.5222 17.432 2.40039 15.8004 2.40039 13.713C2.40039 10.926 2.53904 9.41424 3.21979 8.22634C3.56069 7.63148 4.01469 7.1553 4.55404 6.65743C4.78622 6.4431 5.04415 6.216 5.3217 5.97161C5.36604 5.93257 5.41087 5.89309 5.45619 5.85316C5.788 5.56069 6.15338 5.23661 6.5594 4.86008C6.57223 4.84818 6.58547 4.83674 6.5991 4.82577C6.81122 4.65502 7.05878 4.44454 7.33032 4.21367C7.9043 3.72566 8.58544 3.14655 9.26551 2.65897Z" fill="#9E9E9E"/>
</svg>
