<svg width="25" height="24" viewBox="0 0 25 24" fill="none" xmlns="http://www.w3.org/2000/svg">
    <path fill-rule="evenodd" clip-rule="evenodd" d="M12.139 12.6188H12.171C15.099 12.6188 17.48 10.2378 17.48 7.30976C17.48 4.38176 15.099 1.99976 12.171 1.99976C9.24202 1.99976 6.86002 4.38176 6.86002 7.30676C6.85002 10.2268 9.21702 12.6098 12.139 12.6188ZM8.28802 7.30976C8.28802 5.16876 10.03 3.42776 12.171 3.42776C14.311 3.42776 16.052 5.16876 16.052 7.30976C16.052 9.44976 14.311 11.1918 12.171 11.1918H12.142C10.01 11.1838 8.28102 9.44376 8.28802 7.30976Z" fill="#9E9E9E"/>
    <path fill-rule="evenodd" clip-rule="evenodd" d="M4.25 18.1731C4.25 21.8701 10.212 21.8701 12.171 21.8701C15.57 21.8701 20.09 21.4891 20.09 18.1931C20.09 14.4961 14.13 14.4961 12.171 14.4961C8.771 14.4961 4.25 14.8771 4.25 18.1731ZM5.75 18.1731C5.75 16.7281 7.91 15.9961 12.171 15.9961C16.431 15.9961 18.59 16.7351 18.59 18.1931C18.59 19.6381 16.431 20.3701 12.171 20.3701C7.91 20.3701 5.75 19.6311 5.75 18.1731Z" fill="#9E9E9E"/>
</svg>
