<svg width="25" height="24" viewBox="0 0 25 24" fill="none" xmlns="http://www.w3.org/2000/svg">
    <path fill-rule="evenodd" clip-rule="evenodd" d="M7.915 3.5C5.385 3.5 3.75 5.233 3.75 7.916V16.084C3.75 18.767 5.385 20.5 7.915 20.5H16.583C19.114 20.5 20.75 18.767 20.75 16.084V7.916C20.75 5.233 19.114 3.5 16.584 3.5H7.915ZM16.583 22H7.915C4.526 22 2.25 19.622 2.25 16.084V7.916C2.25 4.378 4.526 2 7.915 2H16.584C19.973 2 22.25 4.378 22.25 7.916V16.084C22.25 19.622 19.973 22 16.583 22Z" fill="#9E9E9E"/>
    <path fill-rule="evenodd" clip-rule="evenodd" d="M11.0632 15.123C10.8722 15.123 10.6792 15.05 10.5332 14.903L8.1592 12.53C7.8662 12.237 7.8662 11.763 8.1592 11.47C8.4522 11.177 8.9262 11.177 9.2192 11.47L11.0632 13.312L15.2792 9.09701C15.5722 8.80401 16.0462 8.80401 16.3392 9.09701C16.6322 9.39001 16.6322 9.86401 16.3392 10.157L11.5932 14.903C11.4472 15.05 11.2552 15.123 11.0632 15.123Z" fill="#9E9E9E"/>
</svg>
