<svg width="25" height="24" viewBox="0 0 25 24" fill="none" xmlns="http://www.w3.org/2000/svg">
    <path fill-rule="evenodd" clip-rule="evenodd" d="M7.96653 16.0029C7.80653 16.0029 7.64553 15.9519 7.50953 15.8479C7.18153 15.5949 7.11953 15.1239 7.37253 14.7959L10.3655 10.9059C10.4875 10.7469 10.6685 10.6439 10.8665 10.6189C11.0685 10.5929 11.2665 10.6489 11.4235 10.7739L14.2435 12.9889L16.7105 9.80593C16.9645 9.47693 17.4345 9.41593 17.7625 9.67193C18.0905 9.92593 18.1505 10.3969 17.8965 10.7239L14.9665 14.5039C14.8445 14.6619 14.6645 14.7649 14.4665 14.7889C14.2665 14.8159 14.0685 14.7579 13.9105 14.6349L11.0925 12.4209L8.56153 15.7099C8.41353 15.9019 8.19153 16.0029 7.96653 16.0029Z" fill="#9E9E9E"/>
    <mask id="mask0_208_15383" style="mask-type:luminance" maskUnits="userSpaceOnUse" x="18" y="2" width="6" height="6">
        <path fill-rule="evenodd" clip-rule="evenodd" d="M18.0449 2.00012H23.3889V7.34502H18.0449V2.00012Z" fill="white"/>
    </mask>
    <g mask="url(#mask0_208_15383)">
        <path fill-rule="evenodd" clip-rule="evenodd" d="M20.7169 3.5C20.0709 3.5 19.5449 4.025 19.5449 4.672C19.5449 5.318 20.0709 5.845 20.7169 5.845C21.3629 5.845 21.8889 5.318 21.8889 4.672C21.8889 4.025 21.3629 3.5 20.7169 3.5ZM20.7169 7.345C19.2439 7.345 18.0449 6.146 18.0449 4.672C18.0449 3.198 19.2439 2 20.7169 2C22.1909 2 23.3889 3.198 23.3889 4.672C23.3889 6.146 22.1909 7.345 20.7169 7.345Z" fill="#9E9E9E"/>
    </g>
    <mask id="mask1_208_15383" style="mask-type:luminance" maskUnits="userSpaceOnUse" x="2" y="2" width="21" height="21">
        <path fill-rule="evenodd" clip-rule="evenodd" d="M2.75 2.8421H22.6119V22.7031H2.75V2.8421Z" fill="white"/>
    </mask>
    <g mask="url(#mask1_208_15383)">
        <path fill-rule="evenodd" clip-rule="evenodd" d="M16.983 22.7031H8.379C5.012 22.7031 2.75 20.3381 2.75 16.8181V8.7361C2.75 5.2111 5.012 2.8421 8.379 2.8421H15.647C16.061 2.8421 16.397 3.1781 16.397 3.5921C16.397 4.0061 16.061 4.3421 15.647 4.3421H8.379C5.871 4.3421 4.25 6.0661 4.25 8.7361V16.8181C4.25 19.5231 5.832 21.2031 8.379 21.2031H16.983C19.491 21.2031 21.112 19.4821 21.112 16.8181V9.7791C21.112 9.3651 21.448 9.0291 21.862 9.0291C22.276 9.0291 22.612 9.3651 22.612 9.7791V16.8181C22.612 20.3381 20.35 22.7031 16.983 22.7031Z" fill="#9E9E9E"/>
    </g>
</svg>
