<svg width="120" height="118" viewBox="0 0 120 118" fill="none" xmlns="http://www.w3.org/2000/svg">
    <circle cx="40.3225" cy="114.807" r="2.25806" fill="#405FF2"/>
    <circle cx="78.7096" cy="111.258" r="0.645161" fill="#405FF2"/>
    <ellipse cx="6.45139" cy="86.7424" rx="3.22581" ry="3.2258" fill="#405FF2"/>
    <circle cx="61.6128" cy="59.9682" r="45.4839" fill="#405FF2"/>
    <circle cx="106.774" cy="104.484" r="1.6129" fill="#405FF2"/>
    <ellipse cx="110" cy="72.2262" rx="1.6129" ry="1.6129" fill="#405FF2"/>
    <ellipse cx="0.645161" cy="49.3229" rx="0.645161" ry="0.645163" fill="#405FF2"/>
    <path d="M77.7351 53.1068L58.3803 72.4616C58.2117 72.6308 58.0114 72.765 57.7908 72.8566C57.5703 72.9481 57.3338 72.9953 57.095 72.9953C56.8562 72.9953 56.6197 72.9481 56.3991 72.8566C56.1786 72.765 55.9783 72.6308 55.8097 72.4616L47.342 63.9939C47.1732 63.8251 47.0393 63.6247 46.9479 63.4042C46.8566 63.1836 46.8096 62.9473 46.8096 62.7086C46.8096 62.4699 46.8566 62.2335 46.9479 62.013C47.0393 61.7925 47.1732 61.5921 47.342 61.4233C47.5107 61.2545 47.7111 61.1206 47.9316 61.0293C48.1522 60.9379 48.3885 60.8909 48.6272 60.8909C48.8659 60.8909 49.1023 60.9379 49.3228 61.0293C49.5434 61.1206 49.7437 61.2545 49.9125 61.4233L57.0965 68.6073L75.1676 50.5392C75.5084 50.1983 75.9708 50.0068 76.4528 50.0068C76.9349 50.0068 77.3972 50.1983 77.7381 50.5392C78.079 50.8801 78.2705 51.3424 78.2705 51.8245C78.2705 52.3066 78.079 52.7689 77.7381 53.1098L77.7351 53.1068Z" fill="white"/>
    <ellipse cx="115.161" cy="18.6776" rx="4.83871" ry="4.83871" fill="#405FF2"/>
    <ellipse cx="68.7096" cy="3.83849" rx="1.6129" ry="1.6129" fill="#405FF2"/>
    <ellipse cx="12.9033" cy="7.38716" rx="6.45161" ry="6.45161" fill="#405FF2"/>
</svg>
