<svg width="21" height="20" viewBox="0 0 21 20" fill="none" xmlns="http://www.w3.org/2000/svg">
    <path d="M0.5 10C0.5 4.47715 4.97715 0 10.5 0C16.0228 0 20.5 4.47715 20.5 10C20.5 15.5228 16.0228 20 10.5 20C4.97715 20 0.5 15.5228 0.5 10Z" fill="#405FF2"/>
    <path d="M11.0627 13.5626C11.0627 13.6739 11.0297 13.7826 10.9679 13.8751C10.9061 13.9676 10.8182 14.0397 10.7154 14.0823C10.6127 14.1249 10.4996 14.136 10.3904 14.1143C10.2813 14.0926 10.1811 14.039 10.1024 13.9604C10.0238 13.8817 9.97019 13.7815 9.94849 13.6724C9.92678 13.5632 9.93792 13.4501 9.9805 13.3474C10.0231 13.2446 10.0952 13.1567 10.1877 13.0949C10.2802 13.0331 10.3889 13.0001 10.5002 13.0001C10.6494 13.0001 10.7924 13.0594 10.8979 13.1649C11.0034 13.2704 11.0627 13.4134 11.0627 13.5626ZM15.6133 8.07824C14.1717 6.89577 12.3647 6.24951 10.5002 6.24951C8.63562 6.24951 6.8287 6.89577 5.38705 8.07824C5.31016 8.1414 5.26151 8.23251 5.25179 8.33154C5.24208 8.43057 5.2721 8.5294 5.33526 8.60629C5.39841 8.68318 5.48952 8.73184 5.58855 8.74155C5.68758 8.75127 5.78641 8.72124 5.8633 8.65809C7.17075 7.58592 8.80934 6.99997 10.5002 6.99997C12.191 6.99997 13.8296 7.58592 15.1371 8.65809C15.2139 8.72124 15.3128 8.75127 15.4118 8.74155C15.4608 8.73674 15.5084 8.72232 15.5519 8.69911C15.5954 8.67591 15.6338 8.64436 15.6651 8.60629C15.6964 8.56822 15.7198 8.52436 15.7342 8.47722C15.7485 8.43007 15.7534 8.38057 15.7486 8.33154C15.7438 8.28251 15.7293 8.2349 15.7061 8.19144C15.6829 8.14798 15.6514 8.10952 15.6133 8.07824ZM14.1096 9.75496C13.0827 8.94197 11.8113 8.49962 10.5016 8.49962C9.19184 8.49962 7.92049 8.94197 6.89362 9.75496C6.81567 9.81675 6.76546 9.90697 6.75403 10.0058C6.7426 10.1046 6.77089 10.2039 6.83268 10.2818C6.89447 10.3598 6.98469 10.41 7.0835 10.4214C7.1823 10.4329 7.28161 10.4046 7.35955 10.3428C8.25386 9.63488 9.36101 9.24973 10.5016 9.24973C11.6422 9.24973 12.7493 9.63488 13.6436 10.3428C13.6822 10.3734 13.7265 10.3961 13.7738 10.4096C13.8212 10.4231 13.8708 10.4271 13.9197 10.4214C13.9686 10.4158 14.0159 10.4005 14.059 10.3766C14.102 10.3526 14.1399 10.3204 14.1705 10.2818C14.2011 10.2432 14.2238 10.199 14.2373 10.1516C14.2508 10.1043 14.2548 10.0547 14.2492 10.0058C14.2435 9.95685 14.2283 9.90952 14.2043 9.86648C14.1804 9.82345 14.1482 9.78555 14.1096 9.75496ZM12.5974 11.4312C11.9882 10.9885 11.2546 10.7501 10.5016 10.7501C9.74859 10.7501 9.01493 10.9885 8.4058 11.4312C8.32537 11.4898 8.27149 11.5779 8.25602 11.6762C8.24055 11.7744 8.26475 11.8748 8.3233 11.9553C8.38186 12.0357 8.46997 12.0896 8.56825 12.1051C8.66653 12.1205 8.76693 12.0963 8.84737 12.0378C9.32808 11.6882 9.90719 11.4999 10.5016 11.4999C11.096 11.4999 11.6751 11.6882 12.1558 12.0378C12.1956 12.0668 12.2408 12.0876 12.2887 12.0992C12.3366 12.1107 12.3863 12.1127 12.4349 12.1051C12.4836 12.0974 12.5303 12.0802 12.5723 12.0545C12.6143 12.0288 12.6509 11.9951 12.6799 11.9553C12.7089 11.9154 12.7297 11.8703 12.7413 11.8224C12.7528 11.7745 12.7548 11.7248 12.7472 11.6762C12.7395 11.6275 12.7223 11.5808 12.6966 11.5388C12.6709 11.4968 12.6372 11.4602 12.5974 11.4312Z" fill="white"/>
</svg>
